<svg width="23" height="23" viewBox="0 0 23 23" fill="none" xmlns="http://www.w3.org/2000/svg">
<g clip-path="url(#clip0_58_131)">
<path fill-rule="evenodd" clip-rule="evenodd" d="M11.5002 0.318359C5.32502 0.318359 0.318359 5.32502 0.318359 11.5002C0.318359 17.6753 5.32502 22.682 11.5002 22.682C17.6753 22.682 22.682 17.6753 22.682 11.5002C22.682 5.32502 17.6753 0.318359 11.5002 0.318359ZM16.6829 7.92293C16.5152 9.69059 15.7865 13.9816 15.4166 15.9617C15.2601 16.8004 14.9507 17.0808 14.6525 17.1079C14.003 17.1675 13.5101 16.6783 12.8811 16.2664C11.8971 15.6216 11.3408 15.22 10.3857 14.5901C9.28152 13.8623 9.99715 13.4626 10.6261 12.8094C10.7911 12.6379 13.6517 10.0354 13.7077 9.79961C13.7142 9.76979 13.7216 9.65984 13.6555 9.60206C13.5893 9.54429 13.4933 9.56386 13.4244 9.5797C13.3256 9.60206 11.7536 10.641 8.70752 12.6966C8.26118 13.0032 7.85677 13.1523 7.49429 13.1448C7.09547 13.1364 6.32765 12.9193 5.75645 12.733C5.05665 12.5056 4.49943 12.3845 4.54788 11.9987C4.57304 11.7974 4.84979 11.5915 5.37906 11.3809C8.63856 9.96081 10.8125 9.02434 11.8999 8.57147C15.0057 7.27997 15.6505 7.0554 16.0717 7.04795C16.5991 7.04049 16.7258 7.47565 16.6829 7.92293Z" fill="white"/>
</g>
<defs>
<clipPath id="clip0_58_131">
<rect width="22.3636" height="22.3636" fill="white" transform="translate(0.318359 0.318359)"/>
</clipPath>
</defs>
</svg>
