<svg width="23" height="23" viewBox="0 0 23 23" fill="none" xmlns="http://www.w3.org/2000/svg">
<path fill-rule="evenodd" clip-rule="evenodd" d="M19.5215 3.56854C17.4287 1.47381 14.6462 0.319291 11.6821 0.318359C5.57406 0.318359 0.602813 5.28868 0.600018 11.3995C0.599086 13.3526 1.10972 15.2591 2.07974 16.9401L0.506836 22.682L6.38102 21.1408C7.99958 22.0241 9.82222 22.4891 11.6765 22.49H11.6812C17.7883 22.49 22.7605 17.5188 22.7633 11.4079C22.7652 8.44754 21.6134 5.66234 19.5215 3.56854ZM11.6821 20.618H11.6784C10.0254 20.618 8.40493 20.1735 6.99043 19.334L6.65404 19.1346L3.16811 20.0487L4.09899 16.6494L3.88002 16.3009C2.95752 14.8342 2.47111 13.1392 2.47204 11.3995C2.4739 6.32113 6.60652 2.18945 11.6868 2.18945C14.1468 2.18945 16.4596 3.14922 18.1983 4.88986C19.9371 6.63143 20.8941 8.94513 20.8932 11.4061C20.8904 16.4863 16.7587 20.618 11.6821 20.618ZM16.7344 13.7198C16.4577 13.5809 15.0963 12.9109 14.8419 12.8187C14.5885 12.7264 14.404 12.6799 14.2185 12.9566C14.0331 13.2334 13.5038 13.8577 13.3417 14.0431C13.1805 14.2276 13.0184 14.2509 12.7416 14.1121C12.4649 13.9732 11.5722 13.6816 10.5146 12.7376C9.69177 12.0034 9.13547 11.0967 8.97427 10.819C8.81306 10.5413 8.95749 10.3922 9.0954 10.2543C9.22027 10.1304 9.37215 9.93099 9.51099 9.76886C9.65077 9.60859 9.69643 9.49304 9.78961 9.30761C9.88186 9.12311 9.8362 8.96097 9.76631 8.82213C9.69643 8.68422 9.14293 7.32097 8.91277 6.76654C8.6882 6.22609 8.4599 6.2997 8.28938 6.29131C8.12818 6.28293 7.94368 6.282 7.75824 6.282C7.57374 6.282 7.2737 6.35095 7.02024 6.62863C6.76679 6.90631 6.05115 7.57629 6.05115 8.93861C6.05115 10.3019 7.04354 11.6185 7.18145 11.803C7.31936 11.9875 9.13361 14.7848 11.9114 15.9841C12.572 16.2692 13.0882 16.4397 13.4899 16.5674C14.1533 16.778 14.7571 16.7482 15.2342 16.6774C15.7663 16.5982 16.8724 16.0074 17.1034 15.3607C17.3345 14.714 17.3345 14.1587 17.2647 14.044C17.1957 13.9276 17.0112 13.8586 16.7344 13.7198Z" fill="white"/>
</svg>
